# xmcd
#
# Track frame offsets:
#	150
#	22350
#	41277
#	53845
#	75645
#	97617
#	111482
#	126270
#	141435
#	160477
#	174775
#	190815
#	211472
#	228725
#	248655
#	260992
#	274362
#	288455
# Disc length: 3998 seconds
# Revision: 1
# Processed by: cddbd v1.5.1PL0 Copyright (c) Steve Scherf et al.
#
# Submitted via: libkcddb 0.21
#
DISCID=100f9c12
DTITLE=ABBA - ABBA 18 Hits
DYEAR=2005
DGENRE=Disco
TTITLE0=The Winner Takes It All
TTITLE1=Super Trouper
TTITLE2=Waterloo
TTITLE3=Gimme! Gimme! Gimme!
TTITLE4=The Name Of The Game
TTITLE5=Ring Ring
TTITLE6=I Do, I Do, I Do, I Do, I Do
TTITLE7=SOS
TTITLE8=Fernando
TTITLE9=Hasta Mañana
TTITLE10=Mamma Mia
TTITLE11=Lay All Your Love On Me
TTITLE12=Thank You For The Music
TTITLE13=Happy New Year
TTITLE14=Waterloo
TTITLE15=Honey Honey
TTITLE16=Ring ring
TTITLE17=Ah, vilka tider
EXTD=Polar Music International
EXTT0=
EXTT1=
EXTT2=
EXTT3=(A Man After Midnight)
EXTT4=
EXTT5=
EXTT6=
EXTT7=
EXTT8=
EXTT9=
EXTT10=
EXTT11=
EXTT12=
EXTT13=
EXTT14=(svenska)
EXTT15=(svenska)
EXTT16=(bara du slog en signal)
EXTT17=
PLAYORDER=
